PathFileType	4	(X/Y/Z)	SUBJ32_2_walk_RCNL2025.trc
DataRate	CameraRate	NumFrames	NumMarkers	Units	OrigDataRate	OrigDataStartFrame	OrigNumFrames
100	100	10	25	mm	100	375	428
Frame#	Time	R_Shoulder			L_Shoulder			C7			J_Notch			R_Elbow			L_Elbow			R_Wrist			L_Wrist			R_Asis			L_Asis			Sacral			Thoracic			Sternum			R_Thigh_Lateral			R_Knee_Lateral			R_Shank_Lateral			R_Ankle_Lateral			R_Heel			R_Toe			L_Thigh_Lateral			L_Knee_Lateral			L_Shank_Lateral			L_Ankle_Lateral			L_Heel			L_Toe		
		X1	Y1	Z1	X2	Y2	Z2	X3	Y3	Z3	X4	Y4	Z4	X5	Y5	Z5	X6	Y6	Z6	X7	Y7	Z7	X8	Y8	Z8	X9	Y9	Z9	X10	Y10	Z10	X11	Y11	Z11	X12	Y12	Z12	X13	Y13	Z13	X14	Y14	Z14	X15	Y15	Z15	X16	Y16	Z16	X17	Y17	Z17	X18	Y18	Z18	X19	Y19	Z19	X20	Y20	Z20	X21	Y21	Z21	X22	Y22	Z22	X23	Y23	Z23	X24	Y24	Z24	X25	Y25	Z25
375	3.74000000	1980.832764	1333.668091	27.048027	1960.298584	1344.821167	-353.277161	1914.141235	1406.477661	-148.822449	2052.075439	1322.101074	-164.652863	1882.970215	1004.327515	109.741524	1866.010742	1041.669067	-457.756714	1909.994568	756.469055	118.283249	1900.687744	784.948883	-482.205414	2048.902344	883.421570	-66.510574	2001.343872	872.488403	-313.791931	1829.960449	923.052979	-155.948669	1835.523682	1181.494263	-154.629745	2125.552734	1088.322388	-184.106644	2060.177490	534.374878	16.955467	2082.588135	441.295776	-27.561869	2107.849609	283.761169	38.091793	2097.105469	58.748646	-68.622231	2040.070312	47.890888	-113.428520	2224.745605	40.858894	-117.256142	1868.170654	545.335632	-418.566895	1855.176025	450.299438	-380.808167	1714.549072	277.533356	-397.643066	1589.098755	140.559036	-297.507996	1553.490112	175.309433	-251.373199	1666.597656	36.065807	-252.681168
376	3.75000000	1992.092163	1334.949707	28.477833	1970.192139	1346.296509	-351.831848	1924.616455	1407.776001	-147.078583	2062.727783	1323.684937	-163.436340	1895.325317	1005.195374	110.911697	1874.501343	1043.237061	-455.535004	1922.990051	757.436584	118.897842	1907.958862	786.392853	-480.143127	2060.005615	884.842651	-65.204689	2012.950439	873.801086	-312.430023	1841.107422	924.136841	-154.981857	1846.462524	1182.646729	-153.198944	2136.676270	1090.029053	-182.908279	2067.362793	534.279358	17.793743	2089.450684	441.348450	-26.616377	2110.034912	282.620270	38.289112	2097.536133	58.815800	-68.552376	2040.300415	48.108315	-113.350578	2224.889404	40.947159	-117.231064	1886.786011	545.651184	-420.484985	1875.321899	450.415344	-383.718170	1731.780640	281.191559	-400.233917	1602.359619	148.535477	-300.026611	1568.538330	185.754990	-254.450592	1671.935791	38.654366	-253.347687
377	3.76000000	2003.257812	1336.337402	29.823282	1979.989380	1347.790649	-350.476410	1935.015991	1409.146118	-145.418137	2073.282715	1325.312500	-162.304977	1907.572754	1006.186523	112.062874	1882.874878	1044.804443	-453.328796	1935.888611	758.531952	119.499992	1915.081787	787.829651	-478.030411	2070.876221	886.191101	-63.976414	2024.476807	875.217896	-311.087433	1852.106689	925.291382	-154.083969	1857.285156	1183.883789	-151.807571	2147.660400	1091.771729	-181.755524	2073.768799	534.015808	18.573818	2095.492432	441.242157	-25.729225	2111.572754	281.472412	38.522575	2097.828613	58.855312	-68.546638	2040.479858	48.253082	-113.429352	2224.950439	41.117222	-117.190460	1905.491821	546.081299	-422.251801	1895.800415	450.694794	-386.470123	1749.907959	284.703644	-402.686920	1616.815063	156.232376	-302.411285	1584.474487	195.531403	-257.428741	1679.169312	42.008961	-254.092743
378	3.77000000	2014.322510	1337.805908	31.083387	1989.692627	1349.283325	-349.212494	1945.338745	1410.566772	-143.843185	2083.739746	1326.963135	-161.258881	1919.699585	1007.276794	113.189651	1891.142822	1046.351074	-451.144348	1948.670898	759.729492	120.087849	1922.073425	789.238373	-475.866501	2081.501465	887.475586	-62.814629	2035.916260	876.721069	-309.775635	1862.954956	926.502441	-153.263672	1867.988525	1185.187134	-150.461380	2158.501953	1093.527710	-180.651367	2079.594727	533.681030	19.315313	2100.824951	441.017822	-24.901215	2113.001953	280.465607	38.845009	2098.015381	58.863461	-68.584145	2040.611938	48.347698	-113.600143	2224.958252	41.295559	-117.147583	1924.174805	546.650452	-423.816223	1916.495972	451.169128	-389.009430	1768.829590	288.013062	-404.938721	1632.410767	163.460464	-304.598114	1601.155396	204.408554	-260.232605	1688.670288	46.041836	-254.810181
379	3.78000000	2025.281372	1339.329956	32.258434	1999.306519	1350.755249	-348.040619	1955.585327	1412.017212	-142.355392	2094.100342	1328.616577	-160.296783	1931.694458	1008.441528	114.286003	1899.317505	1047.858032	-448.986420	1961.318726	761.003235	120.658928	1928.950745	790.599915	-473.650146	2091.876465	888.710510	-61.703636	2047.263916	878.291931	-308.504547	1873.651367	927.755981	-152.528900	1878.571533	1186.538452	-149.166458	2169.201416	1095.275635	-179.597031	2085.010986	533.354614	20.036198	2105.562256	440.716980	-24.130751	2114.710938	279.671173	39.271904	2098.124756	58.841766	-68.643509	2040.700439	48.412334	-113.805725	2224.935791	41.439110	-117.103722	1942.752930	547.379944	-425.154144	1937.302734	451.863525	-391.298767	1788.433594	291.069336	-406.938934	1649.085938	170.036621	-306.530243	1618.460449	212.186569	-262.791656	1700.726074	50.585716	-255.389359
380	3.79000000	2036.131104	1340.884888	33.349789	2008.838013	1352.188843	-346.960022	1965.758301	1413.477417	-140.956070	2104.367920	1330.253662	-159.416290	1943.548462	1009.656433	115.345421	1907.411743	1049.308472	-446.858490	1973.814880	762.327332	121.210072	1935.730530	791.897125	-471.379654	2102.006104	889.911560	-60.628662	2058.516357	879.911499	-307.282257	1884.197388	929.038025	-151.886444	1889.034912	1187.919434	-147.929092	2179.761230	1096.995728	-178.592239	2090.144531	533.091736	20.747633	2109.810059	440.377045	-23.416224	2116.884766	279.092865	39.787838	2098.179932	58.795403	-68.706833	2040.751099	48.464176	-114.003044	2224.898682	41.529057	-117.054352	1961.175903	548.285828	-426.264526	1958.125732	452.794220	-393.316467	1808.606079	293.827606	-408.651886	1666.777100	175.794388	-308.160522	1636.302246	218.704514	-265.041229	1715.493164	55.408688	-255.740814
381	3.80000000	2046.870605	1342.447144	34.359676	2018.296509	1353.567871	-345.969147	1975.862061	1414.927979	-139.646454	2114.547363	1331.855713	-158.614044	1955.254395	1010.897827	116.361153	1915.439087	1050.687378	-444.762848	1986.143677	763.676605	121.737362	1942.429321	793.115173	-469.053207	2111.904053	891.091858	-59.579102	2069.671387	881.559814	-306.115265	1894.595947	930.334534	-151.341736	1899.381836	1189.311890	-146.755386	2190.186523	1098.669189	-177.635452	2095.075684	532.922119	21.451466	2113.660156	440.028473	-22.757652	2119.495117	278.693573	40.359879	2098.199951	58.731728	-68.762146	2040.771362	48.517025	-114.165718	2224.857910	41.563519	-116.993858	1979.418701	549.377075	-427.162354	1978.881104	453.967041	-395.053223	1829.238892	296.247955	-410.057526	1685.420532	180.594391	-309.453796	1654.630127	223.846786	-266.921661	1732.972412	60.240913	-255.822098
382	3.81000000	2057.500732	1343.994141	35.290985	2027.693848	1354.877686	-345.065491	1985.902344	1416.350952	-138.427750	2124.644531	1333.405273	-157.885986	1966.807007	1012.142822	117.326447	1923.413208	1051.982056	-442.700836	1998.291077	765.026886	122.236195	1949.063599	794.241577	-466.668976	2121.591797	892.258667	-58.549431	2080.727051	883.216553	-305.008453	1904.852295	931.631409	-150.898560	1909.616821	1190.698242	-145.651154	2200.484131	1100.278809	-176.724197	2099.845215	532.853394	22.140381	2117.187256	439.693939	-22.157331	2122.340088	278.423615	40.950619	2098.199219	58.659073	-68.804161	2040.769653	48.581181	-114.283371	2224.820068	41.550575	-116.918350	1997.470459	550.654236	-427.869904	1999.496338	455.376678	-396.508179	1850.235718	298.294769	-411.150940	1704.953613	184.333435	-310.389069	1673.428345	227.545334	-268.377686	1753.016968	64.809586	-255.656708
383	3.82000000	2068.024902	1345.505005	36.147011	2037.043213	1356.105591	-344.246063	1995.886719	1417.729004	-137.301117	2134.666748	1334.885986	-157.227615	1978.203369	1013.369995	118.234764	1931.348511	1053.181763	-440.673248	2010.245544	766.355225	122.701382	1955.649658	795.265991	-464.225357	2131.095947	893.411133	-57.538570	2091.681641	884.860779	-303.965393	1914.972534	932.914551	-150.558990	1919.746094	1192.061523	-144.621658	2210.662354	1101.808105	-175.855347	2104.467773	532.877014	22.800259	2120.451904	439.388885	-21.619396	2125.120117	278.236908	41.525124	2098.188965	58.585728	-68.833641	2040.755249	48.663628	-114.358856	2224.788330	41.502808	-116.826866	2015.324463	552.107483	-428.408691	2019.909424	457.007172	-397.685608	1871.514771	299.937317	-411.940247	1725.313843	186.949692	-310.960907	1692.707886	229.776505	-269.361206	1775.368042	68.873558	-255.337677
384	3.83000000	2078.447998	1346.960205	36.931267	2046.359619	1357.239868	-343.507324	2005.823608	1419.046265	-136.267593	2144.623047	1336.282227	-156.634186	1989.442261	1014.559265	119.080040	1939.259277	1054.277588	-438.680481	2021.997375	767.640198	123.127342	1962.203674	796.180359	-461.721283	2140.445312	894.539307	-56.548935	2102.533691	886.471130	-302.988617	1924.964111	934.169983	-150.323410	1929.777222	1193.385254	-143.671509	2220.730713	1103.241699	-175.025467	2108.945068	532.975220	23.413780	2123.503418	439.122345	-21.148762	2127.537598	278.094025	42.051918	2098.177246	58.518940	-68.855690	2040.736816	48.768364	-114.404358	2224.764160	41.433392	-116.721413	2032.967529	553.715881	-428.794037	2040.067993	458.833313	-398.591949	1893.006958	301.152191	-412.443146	1746.441162	188.421890	-311.180237	1712.498291	230.553314	-269.838104	1799.704468	72.248657	-255.012878
